<svg width="64" height="64" viewBox="0 0 64 64" fill="none" xmlns="http://www.w3.org/2000/svg">
  <rect width="64" height="64" rx="18" fill="#102528"/>
  <path d="M18 37.5h28.5c1.7 0 3-1.3 3-3v-5.3c0-1.1-.6-2.1-1.6-2.6l-5.2-2.8-3.3-5.1c-.7-1.1-1.9-1.7-3.2-1.7H25.7c-1.5 0-2.8.8-3.5 2.1l-3.1 5.8-3.3 1.5c-1.1.5-1.8 1.6-1.8 2.8v5.3c0 1.7 1.3 3 3 3Z" stroke="#FAFEFE" stroke-width="3" stroke-linejoin="round"/>
  <path d="M24.2 24.2h15.1" stroke="#FAFEFE" stroke-width="3" stroke-linecap="round"/>
  <circle cx="24" cy="39" r="4" fill="#35B7AE" stroke="#FAFEFE" stroke-width="2"/>
  <circle cx="42" cy="39" r="4" fill="#35B7AE" stroke="#FAFEFE" stroke-width="2"/>
</svg>
